<?xml version="1.0" standalone="no"?>
<!DOCTYPE svg PUBLIC "-//W3C//DTD SVG 20010904//EN"
 "http://www.w3.org/TR/2001/REC-SVG-20010904/DTD/svg10.dtd">
<svg version="1.0" xmlns="http://www.w3.org/2000/svg"
 width="1024.000000pt" height="1024.000000pt" viewBox="0 0 1024.000000 1024.000000"
 preserveAspectRatio="xMidYMid meet">
<metadata>
Created by potrace 1.16, written by Peter Selinger 2001-2019
</metadata>
<g transform="translate(0.000000,1024.000000) scale(0.100000,-0.100000)"
fill="#000000" stroke="none">
<path d="M0 9329 c0 -854 1 -913 17 -924 17 -13 17 -14 0 -32 -16 -19 -17
-232 -17 -3941 0 -3806 1 -3922 18 -3922 11 0 26 -8 36 -18 14 -16 15 -32 10
-104 l-7 -84 -28 4 -29 4 0 -156 0 -156 329 0 328 0 12 62 c7 35 25 106 41
158 16 52 31 127 35 165 9 102 40 237 71 308 15 34 57 104 93 156 36 51 83
117 104 147 20 29 51 93 68 141 17 48 57 130 88 181 87 144 231 285 231 227 0
-15 -40 -73 -80 -116 -34 -36 -56 -66 -72 -99 -9 -19 -28 -55 -42 -80 -33 -62
-53 -109 -61 -145 -4 -16 -9 -37 -12 -45 -3 -8 -7 -27 -8 -42 -1 -15 -15 -49
-30 -75 -30 -51 -125 -182 -161 -222 -12 -13 -35 -49 -50 -79 -23 -45 -28 -67
-26 -116 1 -34 3 -146 5 -251 2 -104 4 -209 5 -232 l2 -43 380 0 379 0 26 26
c23 23 31 25 73 19 26 -4 59 -15 73 -26 23 -16 45 -19 153 -19 l126 0 -57 52
c-32 29 -67 60 -78 70 -67 57 -81 68 -87 68 -4 0 -41 20 -81 45 -41 25 -79 45
-84 45 -5 0 -16 11 -23 25 -7 14 -19 25 -25 25 -14 0 -84 59 -138 118 -22 23
-46 42 -54 42 -7 0 -13 4 -13 10 0 5 -18 37 -40 71 -22 34 -37 65 -35 69 3 5
0 21 -5 36 -26 66 79 185 175 200 51 7 97 0 172 -26 29 -10 55 -15 57 -11 3 4
20 6 38 4 30 -3 31 -2 10 7 -13 5 -20 14 -17 20 3 5 1 10 -4 10 -6 0 -11 18
-11 40 0 22 -4 40 -10 40 -5 0 -10 -5 -10 -12 0 -6 -3 -8 -7 -5 -13 14 -8 69
9 84 15 13 15 18 1 51 -8 20 -42 62 -75 92 -33 30 -66 70 -74 89 -13 31 -13
38 1 68 23 48 82 48 216 -2 50 -18 88 -28 86 -22 -6 19 26 47 56 47 32 0 33
19 1 35 -11 6 -34 20 -51 33 -17 12 -34 22 -38 22 -3 0 -16 11 -29 25 -13 14
-32 25 -42 25 -11 1 -41 7 -68 14 l-50 13 52 7 c36 5 60 14 77 32 25 25 33 40
15 29 -6 -3 -10 0 -10 7 0 7 -12 22 -27 34 -28 22 -44 94 -20 94 7 0 3 7 -7
15 -30 23 -89 17 -203 -19 -14 -4 -23 -3 -23 3 0 15 77 53 125 62 58 11 229
-26 247 -53 6 -10 10 -10 16 -1 11 17 114 -21 227 -82 l90 -49 -32 41 c-36 45
-41 63 -18 63 21 0 19 24 -5 45 -11 10 -20 24 -20 30 0 21 -82 88 -157 129
-115 62 -105 97 29 97 45 0 91 0 101 1 26 2 20 17 -11 24 -15 4 -31 10 -37 14
-28 19 -112 42 -150 42 -85 -2 -206 -67 -216 -116 -3 -11 -28 -26 -69 -40 -36
-13 -73 -27 -84 -31 -32 -14 -4 26 62 86 63 58 83 70 152 89 25 7 79 23 120
36 97 31 286 43 386 24 154 -28 317 -116 434 -232 47 -46 71 -87 167 -279 138
-275 174 -380 232 -674 50 -247 75 -629 52 -766 -6 -30 -13 -82 -16 -116 -7
-63 -7 -63 19 -63 36 0 40 32 32 298 -8 313 -18 419 -55 627 -50 279 -103 463
-185 640 -83 177 -105 235 -91 235 19 0 152 -92 175 -120 43 -54 140 -246 167
-330 4 -13 4 -13 -6 0 -9 13 -11 13 -11 -1 0 -19 37 -111 83 -204 19 -38 40
-88 47 -110 7 -22 16 -44 20 -50 12 -16 58 -173 76 -255 31 -144 30 -459 -2
-687 l-6 -43 62 0 62 0 -6 73 c-3 39 -2 88 2 107 l8 34 18 -49 c10 -28 28 -76
39 -107 l22 -58 504 0 503 0 -6 24 c-3 13 -8 32 -11 43 -3 10 4 -1 17 -25 l22
-42 104 0 104 0 -7 32 c-20 99 -59 190 -98 227 l-25 23 35 49 c41 57 73 136
73 180 0 67 -63 142 -128 152 -12 2 -26 7 -31 13 -8 9 -41 115 -61 194 -17 67
-90 272 -107 299 -15 23 -53 144 -53 169 0 12 20 11 80 -4 14 -4 63 -10 110
-15 73 -7 125 -15 215 -33 141 -27 318 -82 363 -113 18 -12 50 -27 70 -34 20
-6 43 -16 51 -22 10 -9 17 -7 27 7 7 10 24 18 38 19 14 0 23 3 20 8 -3 5 11 9
31 9 33 0 36 2 30 23 -4 15 -4 18 3 8 6 -8 15 -10 22 -6 10 6 9 11 -5 22 -18
12 -18 14 -1 26 17 13 17 14 -5 29 -13 8 -45 23 -71 33 -27 10 -48 18 -48 19
0 7 325 3 400 -5 52 -5 190 -16 307 -24 223 -16 258 -23 267 -52 3 -10 10 -78
15 -151 5 -74 12 -137 15 -140 3 -3 6 33 6 79 1 100 14 88 24 -21 26 -295 57
-604 66 -649 5 -29 11 -77 11 -105 2 -47 2 -48 9 -16 l6 35 8 -27 c5 -15 3
-64 -3 -109 -13 -95 -13 -112 -1 -84 7 17 9 15 9 -12 1 -33 2 -33 49 -33 46 0
50 2 127 80 44 44 86 80 94 80 11 0 13 -12 8 -56 -7 -66 0 -65 17 2 l12 48
100 2 c54 1 111 7 126 13 15 6 49 39 75 73 26 35 95 111 152 171 58 59 101
107 97 107 -4 0 -14 -7 -23 -15 -8 -8 -18 -13 -23 -10 -8 5 -53 -40 -235 -231
-32 -33 -66 -41 -199 -46 -46 -1 -60 2 -68 15 -13 25 -28 21 -28 -8 0 -14 -2
-25 -5 -25 -14 0 -145 87 -177 117 -31 30 -36 40 -31 67 5 33 -13 243 -24 273
-6 17 -5 17 14 1 11 -10 25 -18 32 -18 7 0 32 -16 55 -35 23 -19 64 -44 90
-56 l48 -21 -6 -58 c-7 -59 -1 -75 23 -60 11 6 11 15 2 40 -6 18 -11 43 -11
56 0 22 4 24 48 23 98 -3 189 64 244 180 27 57 30 71 25 130 -7 94 -34 165
-78 211 -38 39 -97 76 -106 66 -3 -2 8 -11 24 -19 84 -45 147 -167 145 -284 0
-53 -5 -69 -33 -110 -56 -82 -107 -130 -155 -146 -43 -14 -44 -14 -44 9 0 16
7 24 22 26 12 2 23 9 26 17 3 10 -2 11 -19 6 -26 -8 -44 -31 -44 -55 0 -11
-11 -14 -45 -12 -47 3 -100 22 -100 35 0 4 -11 12 -25 17 -25 10 -59 70 -85
154 -11 34 -10 41 4 52 15 10 15 12 1 18 -52 20 74 257 152 287 13 5 21 14 18
19 -8 14 -20 6 -84 -54 -97 -92 -135 -210 -107 -336 8 -36 12 -67 10 -69 -6
-7 -35 22 -48 48 -7 14 -16 44 -20 66 -4 22 -14 67 -22 100 -12 46 -14 79 -7
145 l8 85 55 7 c30 4 86 14 125 22 91 21 112 20 125 -4 9 -17 14 -18 30 -8 10
7 18 21 17 32 -2 17 6 22 38 27 22 4 89 15 149 24 80 14 113 15 126 7 13 -8
21 -7 31 4 8 7 37 18 64 24 110 22 166 30 176 24 21 -13 59 -85 79 -151 12
-37 26 -79 31 -92 6 -14 6 -28 0 -35 -6 -7 0 -37 16 -86 59 -174 62 -190 42
-238 -19 -44 -48 -182 -56 -264 -4 -40 -1 -51 21 -73 14 -14 34 -25 46 -25 18
0 20 -6 20 -67 0 -58 10 -146 26 -220 l4 -23 281 0 281 0 -8 108 c-5 59 -9
143 -9 186 l0 79 43 15 c59 19 76 48 69 118 -10 95 -86 181 -149 170 l-27 -5
5 172 c8 247 -7 443 -46 596 -27 102 -30 125 -19 132 27 18 207 69 241 69 24
0 55 -13 96 -40 53 -34 66 -48 90 -102 16 -35 56 -97 89 -138 84 -107 97 -131
138 -265 67 -217 89 -254 211 -355 170 -141 209 -201 250 -383 33 -145 55
-188 133 -256 35 -31 75 -66 88 -78 l24 -23 374 0 375 0 0 5120 0 5120 -3032
-1 -3033 -1 95 -23 c110 -27 304 -63 545 -100 366 -56 359 -54 378 -77 16 -19
24 -20 80 -14 230 27 306 31 557 24 337 -8 589 -43 935 -129 381 -95 832 -299
1160 -525 177 -122 227 -162 218 -177 -4 -7 0 -8 11 -4 14 5 17 3 12 -8 -3 -9
0 -15 9 -15 9 0 12 -6 9 -15 -4 -10 0 -15 11 -15 11 0 15 -6 11 -18 -4 -11 2
-27 14 -40 11 -11 20 -24 20 -28 0 -3 29 -35 64 -71 35 -35 84 -88 107 -116
24 -29 59 -67 78 -87 55 -57 173 -200 245 -295 36 -49 71 -95 76 -102 5 -6 23
-38 40 -70 17 -32 35 -65 40 -73 21 -33 75 -129 113 -200 82 -154 97 -184 97
-196 0 -7 3 -14 8 -16 4 -1 27 -52 51 -113 25 -60 48 -112 51 -115 3 -3 12
-30 19 -60 7 -30 22 -74 32 -97 11 -23 19 -49 19 -57 0 -8 5 -16 11 -18 5 -2
12 -17 13 -33 2 -16 9 -31 15 -33 6 -2 11 -15 11 -28 0 -14 4 -22 10 -19 6 3
10 -3 10 -15 0 -29 57 -172 74 -185 19 -15 50 -266 33 -278 -8 -6 -6 -7 6 -3
14 4 17 -1 17 -31 0 -21 9 -73 20 -118 72 -294 101 -529 107 -865 5 -285 -7
-463 -47 -727 -12 -74 -22 -202 -14 -165 8 33 25 23 54 -33 49 -96 38 -304
-25 -481 -36 -103 -133 -281 -177 -328 l-30 -31 6 27 c3 15 2 30 -4 33 -15 9
-12 -79 5 -160 45 -215 -9 -474 -137 -656 -9 -14 -7 -21 16 -41 34 -29 46
-101 23 -132 -18 -24 -32 -15 -58 37 -12 23 -23 44 -25 46 -3 3 -19 -9 -37
-26 -39 -38 -224 -166 -293 -204 -295 -159 -843 -295 -1332 -330 -241 -17
-756 -7 -1012 20 -382 40 -866 133 -1180 226 -581 172 -681 203 -800 249 -455
175 -848 392 -1099 606 -42 36 -98 83 -124 104 -27 21 -69 61 -94 87 -25 27
-49 46 -53 44 -11 -7 -167 162 -182 197 -7 14 -15 25 -19 22 -4 -2 -13 9 -21
26 -7 16 -16 30 -20 30 -5 0 -8 7 -8 16 0 8 -26 68 -59 132 -32 64 -76 155
-98 202 -23 47 -61 128 -87 180 -41 86 -46 103 -49 179 -2 58 -7 87 -17 95 -8
6 -16 20 -18 31 -1 11 -7 54 -12 95 -32 237 -37 294 -34 380 1 52 8 133 14
180 6 47 14 144 16 215 3 72 11 157 19 190 13 58 27 145 43 270 l7 60 -38 34
c-44 40 -44 46 10 214 37 115 46 161 64 322 13 127 4 241 -26 327 -40 110 -80
162 -177 227 l-36 25 30 28 c17 15 34 28 39 28 5 0 30 -13 56 -29 25 -16 52
-27 59 -24 7 2 20 20 29 39 9 20 23 38 31 41 8 3 14 11 14 18 0 6 10 23 23 36
12 14 38 45 57 69 19 24 49 59 65 79 17 20 64 77 103 126 40 50 110 124 154
165 45 41 116 107 157 147 117 111 147 137 271 231 63 48 141 111 173 139 33
29 84 68 114 85 30 18 71 43 91 56 229 143 526 294 858 436 217 93 286 117
494 172 74 20 143 39 153 41 9 3 17 13 18 22 0 10 3 11 6 4 3 -9 11 -7 25 7
41 38 284 102 459 120 57 6 253 14 434 17 319 5 336 4 510 -21 99 -15 227 -41
285 -58 58 -16 137 -39 175 -49 74 -19 145 -45 316 -115 59 -24 111 -44 115
-44 5 0 45 -16 89 -35 77 -33 134 -48 90 -23 -11 6 -24 17 -28 25 -4 7 -13 13
-19 13 -7 0 -43 19 -82 42 -73 44 -92 53 -321 147 -336 139 -719 244 -1095
300 -191 29 -257 33 -583 38 -284 4 -380 2 -520 -12 -447 -44 -911 -152 -1277
-297 -112 -44 -556 -260 -670 -326 -418 -242 -911 -654 -1280 -1072 -141 -159
-261 -272 -275 -258 -11 11 75 144 150 233 88 106 117 136 305 326 156 157
215 210 305 276 41 30 147 125 183 162 24 25 63 67 86 92 46 48 47 49 180 149
48 36 131 98 184 138 53 40 108 79 122 86 14 7 84 48 155 92 258 159 285 173
475 257 183 81 568 193 810 236 68 12 91 19 66 20 -27 1 -37 5 -33 14 4 10
-10 12 -57 11 -33 -1 -63 -3 -66 -4 -3 -1 -9 -1 -15 0 -29 6 -109 11 -104 6 3
-3 23 -10 45 -15 38 -10 37 -10 -21 -9 -33 1 -67 -2 -75 -5 -61 -25 -115 -29
-296 -22 -105 4 -196 10 -200 14 -5 3 -18 22 -28 42 -10 20 -28 42 -39 49 -27
17 -112 14 -145 -5 -15 -8 -74 -35 -132 -61 -196 -86 -265 -118 -480 -225
-229 -114 -260 -127 -260 -109 0 36 60 104 165 186 28 21 52 42 55 45 7 7 558
279 566 279 4 0 29 14 57 31 40 25 54 29 71 20 57 -28 326 -74 342 -59 6 7
-86 28 -121 28 -13 0 -27 5 -30 10 -3 6 -13 10 -22 10 -9 0 -25 8 -35 17 -15
13 -21 14 -27 5 -4 -7 -15 -10 -24 -6 -9 3 -14 10 -11 15 3 5 -31 9 -76 9 -79
0 -85 -2 -191 -55 -61 -30 -123 -64 -139 -75 -15 -11 -31 -20 -34 -20 -4 0
-23 -11 -44 -23 -62 -39 -242 -130 -247 -126 -5 6 20 53 49 93 23 33 15 65
-12 45 -15 -13 -16 -12 -4 2 8 10 21 15 35 12 17 -4 19 -3 7 6 -12 8 -12 11 5
17 10 4 30 17 42 28 13 12 56 38 96 58 l72 38 -1722 0 -1723 0 0 -911z m9465
821 c0 -8 -8 -16 -17 -18 -13 -2 -18 3 -18 18 0 15 5 20 18 18 9 -2 17 -10 17
-18z m-6937 -62 c-6 -18 -28 -21 -28 -4 0 9 7 16 16 16 9 0 14 -5 12 -12z
m-768 -23 c0 -8 -4 -15 -10 -15 -5 0 -10 7 -10 15 0 8 5 15 10 15 6 0 10 -7
10 -15z m6435 -35 c8 -25 -1 -40 -25 -40 -10 0 -22 5 -25 10 -11 17 6 50 25
50 10 0 21 -9 25 -20z m305 -152 c0 -24 -26 -34 -45 -18 -19 16 -19 25 1 45
19 19 44 4 44 -27z m-7190 -18 c0 -25 -30 -34 -49 -15 -15 15 -14 17 2 30 23
17 47 9 47 -15z m-214 -138 c6 -4 16 -16 22 -27 24 -47 -36 -76 -73 -35 -17
18 -17 21 -1 45 17 25 32 31 52 17z m1274 -326 l0 -204 -52 -7 c-64 -7 -282
-59 -358 -85 -30 -10 -72 -21 -93 -25 -21 -3 -46 -9 -55 -13 -9 -3 12 23 49
58 36 36 79 85 95 110 27 41 84 158 84 174 0 36 -139 -81 -337 -283 -105 -107
-173 -169 -173 -158 0 22 -1 21 -47 -5 -50 -28 -84 -59 -77 -69 3 -5 -1 -6 -9
-3 -8 3 -21 -1 -28 -9 -8 -7 -26 -17 -41 -20 -23 -6 -25 -4 -21 13 3 11 0 20
-6 20 -6 0 -11 -7 -11 -15 0 -8 -4 -15 -8 -15 -5 0 -14 -10 -20 -22 -11 -20
-11 -19 -6 12 18 99 79 204 185 315 120 126 260 213 459 283 153 54 442 150
458 151 9 1 12 -46 12 -203z m1170 166 c0 -5 -12 -15 -27 -23 -218 -114 -696
-413 -797 -499 -22 -19 -77 -62 -121 -95 -121 -91 -231 -196 -328 -315 -25
-30 -53 -62 -63 -71 -56 -49 -211 -234 -262 -312 -15 -23 -29 -44 -32 -47 -13
-13 -65 -86 -124 -176 -36 -55 -76 -112 -88 -128 -13 -16 -27 -38 -33 -50 -13
-28 -84 -92 -110 -99 -17 -4 -16 -5 5 -6 28 -2 16 -12 -30 -26 -23 -7 -24 -7
-10 10 9 11 10 16 3 11 -19 -11 -17 -6 40 106 118 229 339 546 507 728 89 96
150 158 186 189 21 18 62 55 89 80 28 26 82 72 120 101 39 29 83 65 98 79 15
14 46 35 67 46 22 11 113 70 202 131 228 155 468 289 616 345 85 31 92 33 92
21z m5879 -46 c7 -8 11 -27 9 -43 -4 -39 -48 -45 -67 -10 -25 46 26 92 58 53z
m-731 -198 c-2 -12 -9 -23 -15 -26 -19 -6 -29 28 -12 39 23 14 31 10 27 -13z
m1482 -248 c0 -5 -4 -10 -10 -10 -5 0 -10 5 -10 10 0 6 5 10 10 10 6 0 10 -4
10 -10z m-7986 -56 c29 -28 23 -91 -10 -121 -32 -29 -49 -29 -68 -1 -22 31
-20 80 5 112 23 29 50 33 73 10z m-664 -74 c0 -5 -5 -10 -11 -10 -5 0 -7 5 -4
10 3 6 8 10 11 10 2 0 4 -4 4 -10z m70 -104 c0 -19 5 -36 11 -38 8 -3 -1 -26
-22 -63 -79 -140 -105 -212 -194 -530 -112 -402 -139 -481 -181 -535 -6 -8
-22 -48 -35 -88 -13 -40 -28 -71 -34 -68 -6 2 -11 -5 -11 -15 0 -11 4 -19 9
-19 4 0 5 -5 2 -10 -4 -6 -10 -8 -15 -5 -5 3 -16 -11 -25 -30 -16 -40 -41 -43
-39 -4 3 98 70 551 94 639 11 41 21 80 23 85 1 6 19 49 39 95 20 47 58 136 85
199 26 63 70 151 97 195 27 45 57 97 69 118 11 20 30 42 43 49 13 7 26 21 30
31 3 10 9 16 14 13 5 -3 11 -1 15 5 13 21 25 9 25 -24z m-410 10 c0 -3 -33
-21 -72 -42 -104 -52 -151 -87 -238 -174 -128 -128 -179 -219 -227 -400 -19
-72 -29 -96 -31 -77 -8 71 59 266 128 370 77 117 232 253 352 307 39 18 88 26
88 16z m442 -28 c-6 -6 -15 -8 -19 -4 -4 4 -1 11 7 16 19 12 27 3 12 -12z
m8198 -18 c18 -11 3 -43 -24 -48 -21 -4 -32 24 -16 43 14 17 20 18 40 5z m270
-735 c15 -19 6 -61 -16 -69 -21 -8 -54 20 -54 45 0 33 49 50 70 24z m-176
-241 c22 -21 3 -56 -27 -52 -28 4 -35 38 -11 55 22 16 19 16 38 -3z m-7934
-114 c221 -73 429 -283 456 -458 l7 -44 -39 4 -39 3 -5 -49 c-6 -55 -16 -51
-45 17 -20 49 -35 47 -35 -5 l0 -41 -24 22 c-30 28 -37 19 -42 -62 -7 -106
-27 -237 -37 -244 -6 -4 -7 8 -3 31 4 21 11 112 16 204 l9 167 -29 63 c-69
149 -258 262 -437 262 -127 0 -231 -37 -379 -136 -148 -99 -223 -189 -292
-351 -20 -48 -38 -80 -40 -70 -6 28 38 169 70 227 16 30 26 51 20 45 -26 -26
-88 -128 -130 -213 l-47 -95 1 -136 c0 -99 5 -154 18 -201 28 -101 84 -206
140 -266 29 -30 47 -54 41 -54 -17 1 -47 31 -109 108 -32 39 -60 72 -63 72 -3
0 -2 -12 1 -26 4 -14 3 -23 -2 -20 -10 6 -38 96 -34 110 2 4 -1 13 -6 20 -40
51 -41 327 -2 476 64 243 226 429 502 575 140 74 239 97 388 91 72 -3 126 -11
170 -26z m7645 -149 c-4 -13 -13 -21 -23 -19 -21 4 -27 34 -11 54 11 13 14 13
27 1 9 -9 11 -23 7 -36z m-7769 -278 c3 -21 15 -69 25 -108 11 -38 19 -71 19
-72 0 -2 -11 -3 -24 -3 -41 0 -89 42 -120 104 l-30 59 32 28 c20 18 43 29 62
29 26 0 30 -4 36 -37z m8119 -64 c14 -42 -44 -68 -65 -29 -8 15 -6 24 10 40
22 22 46 18 55 -11z m-8321 -46 c-2 -27 -1 -39 2 -28 12 47 16 51 25 27 5 -13
7 -28 4 -33 -3 -5 -1 -17 5 -28 7 -14 7 -22 -1 -26 -6 -5 -4 -12 8 -20 10 -7
15 -17 11 -21 -11 -11 -38 16 -38 38 0 14 -5 18 -16 14 -8 -3 -12 -2 -9 4 3 6
1 10 -4 10 -15 0 -14 83 1 98 7 7 13 12 14 12 1 0 0 -21 -2 -47z m-187 -48
c15 -94 51 -164 108 -211 25 -21 45 -42 45 -46 0 -14 -35 -9 -75 12 -21 11
-41 17 -44 14 -7 -7 40 -43 57 -44 6 0 12 -4 12 -9 0 -15 -63 10 -84 33 -33
37 -67 96 -61 107 4 5 1 34 -5 65 -10 47 -9 62 6 105 10 27 21 49 24 49 3 0
11 -34 17 -75z m150 38 c-3 -10 -5 -4 -5 12 0 17 2 24 5 18 2 -7 2 -21 0 -30z
m127 -119 c4 -10 1 -14 -6 -12 -15 5 -23 28 -10 28 5 0 13 -7 16 -16z m-1077
-66 c-3 -7 -5 -2 -5 12 0 14 2 19 5 13 2 -7 2 -19 0 -25z m1920 -21 c13 -13
15 -22 7 -44 -11 -30 -5 -29 -117 -17 -73 9 -85 -1 -126 -109 -32 -84 -51
-121 -51 -101 0 17 50 236 57 247 3 5 19 17 37 28 41 26 166 24 193 -4z
m-1907 -87 c18 -148 29 -304 21 -318 -5 -8 -13 29 -20 89 -14 129 -26 326 -18
319 3 -3 11 -43 17 -90z m1914 -401 c-8 -14 -31 -11 -37 4 -4 10 2 13 19 9 13
-2 21 -8 18 -13z m-1607 -41 c-3 -8 -6 -5 -6 6 -1 11 2 17 5 13 3 -3 4 -12 1
-19z m-84 -30 c8 -18 18 -44 22 -58 4 -14 27 -55 50 -91 24 -36 46 -76 49 -87
4 -12 23 -44 42 -72 51 -74 87 -141 79 -148 -4 -4 -11 1 -16 11 -28 50 -43
-24 -32 -167 l7 -101 12 85 c34 241 55 101 59 -390 4 -390 9 -447 61 -640 14
-52 35 -133 45 -180 18 -78 34 -126 59 -172 6 -10 10 -25 10 -33 0 -8 6 -15
14 -15 7 0 16 -8 20 -17 3 -10 19 -43 36 -73 16 -30 30 -63 30 -72 0 -10 5
-18 10 -18 6 0 10 -6 10 -14 0 -7 7 -19 15 -26 9 -7 13 -15 11 -18 -3 -3 -18
8 -34 24 -15 16 -50 47 -76 68 -142 115 -319 698 -365 1201 -16 179 -21 352
-13 473 l7 113 -53 52 c-76 75 -100 131 -105 242 -3 89 6 155 22 155 5 0 15
-15 24 -32z m193 -110 c28 -30 17 -30 -18 0 -16 13 -24 32 -15 32 2 0 16 -14
33 -32z m160 -35 c-6 -7 -96 47 -96 58 0 4 23 -6 50 -23 28 -17 48 -33 46 -35z
m-106 -8 c11 -13 10 -14 -4 -9 -9 3 -16 10 -16 15 0 13 6 11 20 -6z m-561
-640 c-9 -145 -17 -216 -29 -230 -4 -5 -7 -31 -6 -58 0 -26 -2 -47 -6 -47 -5
0 -8 10 -8 22 0 12 -3 19 -6 16 -3 -4 -7 -63 -9 -133 -1 -69 -5 -129 -8 -131
-9 -9 -47 35 -48 54 0 21 -48 -76 -49 -100 0 -10 -4 -18 -9 -18 -5 0 -12 -7
-15 -16 -3 -8 -2 -12 4 -9 11 7 1 -27 -11 -35 -4 -3 -14 -27 -22 -55 -20 -65
-47 -144 -60 -172 -5 -12 -7 -29 -3 -38 3 -9 2 -14 -3 -11 -5 3 -11 -11 -14
-32 -3 -20 -13 -84 -21 -142 -9 -58 -20 -186 -26 -285 -5 -99 -14 -209 -20
-245 -12 -68 -8 -349 10 -725 6 -110 15 -450 20 -755 6 -305 17 -663 25 -795
22 -357 28 -501 21 -494 -4 4 -16 37 -26 75 -24 83 -32 227 -62 1164 -30 948
-34 1229 -27 1625 10 485 20 532 243 1127 58 154 108 335 146 526 19 93 27 55
19 -83z m9491 -35 c0 -11 -7 -20 -15 -20 -15 0 -21 21 -8 33 12 13 23 7 23
-13z m-396 -146 c7 -19 8 -59 1 -52 -11 10 -23 68 -15 68 4 0 11 -7 14 -16z
m-9094 -84 c0 -11 -4 -20 -10 -20 -5 0 -10 9 -10 20 0 11 5 20 10 20 6 0 10
-9 10 -20z m1606 -20 c70 -34 118 -84 158 -163 22 -43 35 -80 31 -87 -6 -9
-28 -11 -81 -6 -77 7 -115 22 -179 70 -22 17 -52 38 -65 47 l-25 17 26 -5 c36
-7 43 10 24 51 -13 28 -23 35 -56 40 -25 4 -37 10 -33 17 3 6 19 9 35 7 15 -3
26 -1 23 4 -3 4 -24 8 -47 9 l-42 1 40 14 c51 17 136 10 191 -16z m-1619 -62
c-3 -8 -6 -5 -6 6 -1 11 2 17 5 13 3 -3 4 -12 1 -19z m47 -40 c-7 -71 -25
-104 -19 -37 2 24 4 56 4 72 1 15 6 27 11 27 7 0 9 -21 4 -62z m1435 -78 c59
-30 99 -68 131 -124 33 -57 36 -90 15 -156 l-14 -45 1 70 c1 81 -20 132 -77
190 -53 52 -89 67 -151 63 -46 -2 -52 -1 -37 10 25 18 89 15 132 -8z m-1464
-13 c7 -8 10 -19 5 -28 -5 -8 -10 -27 -13 -44 -2 -16 -17 -66 -32 -110 -15
-44 -40 -120 -55 -170 -16 -49 -40 -124 -55 -165 -36 -102 -62 -210 -71 -300
-6 -63 -9 -70 -15 -46 -15 55 8 249 36 303 8 15 12 36 9 46 -3 9 -1 17 4 17 5
0 12 19 16 41 4 23 15 61 26 85 11 23 20 48 20 53 0 6 4 11 9 11 11 0 25 57
22 88 -1 14 4 22 14 22 8 0 15 5 15 11 0 5 -5 7 -10 4 -14 -9 -7 24 13 62 9
18 17 42 17 55 0 19 2 20 11 8 8 -12 9 -9 5 12 -6 25 1 58 11 58 2 0 10 -6 18
-13z m-118 -103 c2 -13 1 -15 -4 -4 -3 8 -11 19 -17 23 -7 6 -6 7 4 4 8 -2 16
-12 17 -23z m1443 -43 c-1 -13 -3 -13 -15 3 -19 26 -19 42 0 26 8 -7 15 -20
15 -29z m670 -42 c0 -50 -27 -96 -68 -115 -20 -9 -44 -22 -52 -29 -8 -6 -23
-15 -32 -18 -16 -6 -18 1 -18 48 0 53 1 55 38 74 20 11 51 31 67 45 42 36 65
34 65 -5z m-2163 -121 c-3 -7 -5 -2 -5 12 0 14 2 19 5 13 2 -7 2 -19 0 -25z
m1863 -70 c-25 -11 -48 -25 -51 -31 -4 -5 -10 -40 -14 -76 -8 -74 -14 -89 -26
-70 -6 10 -9 7 -9 -10 0 -13 -2 -22 -5 -19 -13 12 14 160 32 180 21 24 70 47
98 47 12 -1 3 -8 -25 -21z m-1600 -823 c0 -20 -30 -108 -41 -119 -5 -6 -9 30
-9 90 l1 99 24 -28 c14 -15 25 -34 25 -42z m910 44 c0 -6 -4 -7 -10 -4 -5 3
-10 11 -10 16 0 6 5 7 10 4 6 -3 10 -11 10 -16z m35 -39 c3 -5 1 -10 -4 -10
-6 0 -11 5 -11 10 0 6 2 10 4 10 3 0 8 -4 11 -10z m76 -320 c19 -17 59 -49 89
-73 30 -23 57 -45 58 -49 2 -5 8 -8 12 -8 5 0 44 -26 87 -58 314 -235 638
-454 770 -520 21 -10 72 -37 113 -60 41 -22 138 -64 215 -92 77 -28 167 -62
200 -75 65 -25 158 -57 415 -140 223 -73 312 -99 533 -155 184 -47 223 -60
179 -60 -36 0 -494 116 -747 189 -67 19 -289 94 -330 111 -11 4 -42 16 -70 25
-240 83 -496 204 -985 467 -231 124 -287 163 -435 308 -111 108 -155 165 -155
199 0 28 11 26 51 -9z m1712 -110 c31 -14 57 -31 57 -38 0 -23 -60 -133 -70
-127 -6 3 -10 -1 -10 -10 0 -12 -6 -15 -20 -10 -22 7 -25 -2 -10 -25 7 -11 10
-11 10 -2 0 7 4 11 9 8 11 -7 2 -48 -13 -58 -6 -4 -22 -8 -35 -8 -19 0 -21 3
-11 14 6 8 18 12 26 9 8 -3 14 0 14 6 0 6 -5 11 -11 11 -7 0 -9 12 -6 33 5 33
-5 60 -31 86 -8 9 -12 25 -8 42 8 43 35 101 44 97 5 -1 34 -14 65 -28z m6582
-280 c3 -5 1 -10 -4 -10 -6 0 -11 5 -11 10 0 6 2 10 4 10 3 0 8 -4 11 -10z
m-6708 -87 c-3 -10 -5 -4 -5 12 0 17 2 24 5 18 2 -7 2 -21 0 -30z m33 -58 c0
-5 -5 -3 -10 5 -5 8 -10 20 -10 25 0 6 5 3 10 -5 5 -8 10 -19 10 -25z m5825
-7 c-5 -18 -71 -193 -92 -245 -3 -8 9 -12 37 -11 23 0 47 -5 53 -12 16 -16
-39 -63 -121 -102 -34 -17 -92 -50 -127 -73 -177 -119 -451 -246 -669 -310
-61 -18 -129 -40 -151 -50 -48 -20 -286 -69 -405 -84 -47 -6 -107 -13 -135
-17 -171 -20 -992 -6 -1156 20 -138 22 -199 36 -199 46 0 12 25 18 118 25 45
3 104 13 130 21 26 7 121 21 212 29 91 9 203 20 250 25 136 16 282 32 325 35
22 1 65 7 95 13 65 14 307 53 505 82 254 38 588 128 779 210 227 97 320 155
448 281 66 65 88 93 88 113 0 14 5 26 11 26 6 0 8 -9 4 -22z m-6019 -6 c13 -8
64 -99 64 -113 0 -28 -75 30 -100 76 -12 23 -12 28 0 35 18 12 22 12 36 2z
m699 -127 c33 -9 66 -22 75 -29 8 -8 26 -17 40 -21 14 -4 37 -16 52 -26 14
-11 30 -19 34 -19 11 0 44 -32 44 -43 0 -19 -80 4 -182 53 -69 34 -123 53
-166 58 -68 9 -84 18 -62 32 23 15 99 12 165 -5z m-52 -87 c9 -5 17 -13 17
-18 0 -11 -43 4 -73 26 -21 15 -21 15 8 8 17 -4 38 -11 48 -16z m-2754 -61 c8
-10 -1 -24 -38 -59 -53 -51 -62 -74 -82 -223 -17 -130 -7 -340 26 -524 15 -85
9 -240 -7 -171 -42 186 -69 380 -75 532 -8 240 16 367 81 433 28 27 76 34 95
12z m3261 -97 c0 -5 -4 -10 -10 -10 -5 0 -10 5 -10 10 0 6 5 10 10 10 6 0 10
-4 10 -10z m103 -36 c31 -10 57 -22 57 -27 0 -11 -44 -1 -84 19 -16 8 -35 14
-43 14 -7 0 -13 4 -13 10 0 10 0 10 83 -16z m-1976 -35 c15 -6 37 -15 48 -20
11 -4 52 -19 90 -32 39 -14 97 -37 130 -51 154 -65 787 -277 980 -327 66 -17
183 -49 260 -70 77 -21 205 -53 285 -69 80 -17 174 -37 210 -45 36 -8 80 -15
98 -15 17 0 32 -4 32 -9 0 -5 8 -7 18 -4 10 2 72 -5 137 -17 166 -30 202 -36
345 -55 69 -9 175 -27 235 -40 61 -13 148 -28 195 -34 47 -5 166 -21 265 -35
297 -41 653 -59 1190 -60 481 -1 600 4 897 40 70 9 133 14 140 11 7 -3 3 -6
-10 -6 -12 -1 -30 -5 -40 -10 -20 -11 -188 -60 -247 -73 -22 -4 -78 -13 -125
-18 -47 -5 -139 -16 -205 -25 -212 -26 -809 -13 -1165 25 -191 21 -617 87
-805 125 -66 13 -140 27 -165 30 -113 15 -633 117 -715 140 -27 8 -75 17 -105
20 -30 4 -111 17 -180 30 -69 13 -163 31 -210 40 -151 29 -223 46 -305 72 -43
13 -120 35 -170 48 -98 26 -265 82 -415 139 -52 20 -133 50 -180 66 -163 59
-522 211 -544 231 -13 12 -2 11 31 -2z m2098 -9 l20 -9 -20 0 c-11 0 -27 4
-35 9 -13 9 -13 10 0 9 8 0 24 -4 35 -9z m-3177 -208 c2 -14 -7 -38 -23 -58
-22 -28 -30 -33 -41 -23 -21 18 -17 65 8 89 28 26 52 22 56 -8z m3132 -92 c13
-9 13 -10 0 -9 -8 0 -24 4 -35 9 l-20 9 20 0 c11 0 27 -4 35 -9z m105 -21 c19
-8 19 -8 -1 -8 -34 -1 -84 11 -84 20 0 9 50 2 85 -12z m3985 -10 c0 -22 -108
-115 -170 -148 -63 -32 -208 -91 -374 -152 -93 -34 -291 -84 -391 -98 -243
-36 -324 -41 -611 -41 -165 -1 -355 4 -424 10 -242 20 -501 58 -553 81 -23 10
23 9 563 -12 283 -11 657 -6 860 12 167 14 567 84 657 115 123 42 306 143 391
216 34 29 52 35 52 17z m-130 -322 c0 -32 -29 -56 -92 -78 -59 -20 -75 -16
-40 10 13 9 43 33 68 54 53 43 64 46 64 14z m180 -97 c-30 -23 -40 -25 -40 -6
0 8 12 17 28 19 15 2 29 5 32 5 3 1 -6 -7 -20 -18z m-50 -29 c0 -11 -19 -26
-45 -35 -16 -6 -15 -3 5 17 27 26 40 32 40 18z m-80 -55 c0 -11 -181 -89 -270
-115 -58 -18 -111 -34 -117 -36 -7 -3 -13 2 -13 9 0 8 41 25 103 44 56 18 143
48 192 67 89 34 105 39 105 31z m-6940 -70 c0 -11 -19 -15 -25 -6 -3 5 1 10 9
10 9 0 16 -2 16 -4z m-42 -28 c-8 -7 -18 -21 -21 -30 -6 -18 28 -31 153 -58
30 -7 65 -18 77 -26 12 -8 29 -14 38 -14 8 0 15 -4 15 -10 0 -14 -54 -12 -135
5 -39 8 -96 15 -127 15 -31 0 -63 3 -72 6 -35 13 -4 104 35 104 10 0 21 5 24
10 3 6 11 10 18 10 6 0 4 -6 -5 -12z m6352 -96 c0 -10 -155 -40 -241 -47 -91
-7 -36 9 116 34 66 10 121 19 123 20 1 1 2 -3 2 -7z m206 -102 c31 -107 52
-240 67 -425 13 -146 11 -325 -4 -339 -13 -14 -62 54 -65 91 -8 95 -36 267
-78 478 -15 80 -12 240 5 262 7 8 22 13 33 11 17 -2 25 -18 42 -78z m-686 39
c-127 -17 -297 -24 -465 -19 l-170 6 155 3 c85 2 220 7 300 11 80 3 168 7 195
7 48 0 47 0 -15 -8z m-3658 -15 c34 -10 57 -22 55 -28 -3 -6 8 -33 23 -61 24
-43 69 -140 148 -315 41 -92 74 -182 68 -187 -3 -3 -17 8 -31 23 l-26 29 4
-27 c2 -16 0 -28 -4 -28 -5 0 -10 9 -10 20 -1 11 -3 25 -4 30 -1 6 -3 22 -4
38 -2 25 -3 25 -15 9 -12 -16 -14 -15 -27 10 -8 16 -31 53 -51 84 -52 80 -78
127 -78 144 0 8 -4 15 -8 15 -5 0 -16 17 -25 38 -21 47 -51 99 -71 121 -9 10
-16 20 -16 24 0 3 -11 18 -25 33 -14 15 -25 31 -25 35 0 14 59 10 122 -7z
m158 -67 c0 -6 -9 -1 -20 11 -11 12 -20 24 -20 28 0 4 9 -1 20 -11 11 -10 20
-23 20 -28z m354 19 c59 -9 82 -17 92 -32 23 -33 139 -332 178 -454 44 -141
64 -218 72 -283 l7 -50 -59 7 c-58 7 -84 24 -84 53 0 7 -5 13 -10 13 -9 0 -7
-29 6 -70 3 -8 2 -11 -2 -8 -3 4 -25 65 -49 135 -41 124 -104 287 -175 448 -5
11 -32 69 -60 130 -53 114 -56 142 -17 130 12 -3 58 -12 101 -19z m3591 -121
c3 -14 8 -37 11 -52 15 -72 45 -265 50 -328 7 -70 6 -71 -21 -83 -36 -17 -35
-18 -84 133 -22 66 -56 160 -76 209 -46 113 -44 129 15 137 91 12 99 11 105
-16z m-3695 -326 c0 -6 -4 -7 -10 -4 -5 3 -10 11 -10 16 0 6 5 7 10 4 6 -3 10
-11 10 -16z m-95 -119 c3 -5 1 -10 -4 -10 -6 0 -11 5 -11 10 0 6 2 10 4 10 3
0 8 -4 11 -10z m-391 -158 c13 -42 27 -103 31 -134 8 -62 -1 -168 -14 -168 -5
0 -14 51 -21 113 -7 61 -19 143 -26 180 -17 81 -17 100 -4 92 5 -3 20 -40 34
-83z m2956 -197 c6 -55 12 -115 15 -132 2 -18 0 -33 -5 -33 -5 0 -13 15 -19
33 -15 46 -51 293 -50 341 1 39 2 38 25 -34 13 -41 29 -120 34 -175z m1633
104 c26 -7 44 -20 57 -42 20 -32 26 -83 12 -102 -12 -16 -36 -18 -253 -15
-229 2 -249 -2 -249 -50 0 -33 -3 -35 -31 -20 -37 20 -57 89 -51 182 4 54 64
65 317 60 88 -2 177 -8 198 -13z m-3455 -120 c-2 -7 -14 5 -27 27 l-23 39 27
-26 c15 -15 25 -33 23 -40z m-42 10 c14 -15 16 -24 8 -37 -24 -39 -63 -46
-284 -55 -118 -4 -221 -10 -229 -13 -10 -3 -12 -16 -7 -49 l7 -45 -35 0 c-47
0 -87 51 -93 118 -8 81 1 86 169 93 78 3 211 6 294 7 141 2 152 1 170 -19z
m-789 -28 c15 -24 1 -37 -83 -79 -34 -17 -73 -45 -88 -62 -15 -18 -26 -25 -26
-17 0 23 55 93 92 115 19 12 43 30 53 42 23 25 37 25 52 1z m94 -98 c19 -23
29 -77 16 -85 -9 -6 -9 -8 1 -8 6 0 12 -4 12 -10 0 -19 -17 -10 -28 14 -6 13
-8 35 -5 47 4 19 3 21 -6 9 -8 -11 -10 -3 -10 35 1 28 4 41 6 30 3 -11 9 -25
14 -32z m-3813 -23 c20 -19 21 -26 15 -121 -4 -60 -2 -100 3 -98 45 21 84 44
84 51 0 4 -9 12 -19 17 -18 10 -46 69 -37 78 6 7 47 -16 74 -40 26 -24 29 -72
6 -105 -8 -12 -34 -32 -56 -43 -34 -18 -44 -19 -69 -8 -17 6 -34 20 -39 30 -6
10 -10 72 -10 138 0 130 5 141 48 101z m9477 -24 c0 -32 -12 -41 -34 -27 -20
13 -6 63 17 59 11 -2 17 -13 17 -32z m-5855 -168 l25 -17 -24 0 c-36 -1 -114
47 -107 66 3 8 6 20 6 28 0 7 17 -4 38 -24 20 -20 48 -44 62 -53z"/>
<path d="M937 6550 c3 -11 9 -22 13 -25 5 -3 6 4 3 15 -3 11 -9 22 -13 25 -5
3 -6 -4 -3 -15z"/>
<path d="M1434 6968 c3 -15 26 -23 26 -8 0 6 -4 9 -9 6 -5 -4 -12 -1 -14 4 -3
6 -4 5 -3 -2z"/>
<path d="M1470 6931 c0 -5 5 -13 10 -16 6 -3 10 -2 10 4 0 5 -4 13 -10 16 -5
3 -10 2 -10 -4z"/>
<path d="M500 5190 c0 -14 -3 -35 -6 -47 -4 -13 -2 -23 4 -23 15 0 26 70 13
83 -8 8 -11 4 -11 -13z"/>
<path d="M2095 5190 c-3 -5 1 -10 9 -10 9 0 16 5 16 10 0 6 -4 10 -9 10 -6 0
-13 -4 -16 -10z"/>
<path d="M570 5104 c0 -8 5 -12 10 -9 6 3 10 10 10 16 0 5 -4 9 -10 9 -5 0
-10 -7 -10 -16z"/>
<path d="M3951 984 c0 -11 3 -14 6 -6 3 7 2 16 -1 19 -3 4 -6 -2 -5 -13z"/>
<path d="M4400 755 c0 -5 5 -17 10 -25 5 -8 10 -10 10 -5 0 6 -5 17 -10 25 -5
8 -10 11 -10 5z"/>
<path d="M3573 10233 c9 -2 23 -2 30 0 6 3 -1 5 -18 5 -16 0 -22 -2 -12 -5z"/>
<path d="M3506 10209 c-17 -17 -18 -19 -3 -19 9 0 17 4 17 9 0 5 8 11 18 13
14 3 14 5 2 9 -8 4 -24 -2 -34 -12z"/>
<path d="M4077 10189 c7 -7 15 -10 18 -7 3 3 -2 9 -12 12 -14 6 -15 5 -6 -5z"/>
<path d="M4160 10179 c0 -5 5 -7 10 -4 6 3 10 8 10 11 0 2 -4 4 -10 4 -5 0
-10 -5 -10 -11z"/>
<path d="M5093 10003 c9 -2 23 -2 30 0 6 3 -1 5 -18 5 -16 0 -22 -2 -12 -5z"/>
<path d="M4938 9983 c7 -3 16 -2 19 1 4 3 -2 6 -13 5 -11 0 -14 -3 -6 -6z"/>
<path d="M4873 9973 c9 -2 23 -2 30 0 6 3 -1 5 -18 5 -16 0 -22 -2 -12 -5z"/>
<path d="M6325 8723 c-376 -9 -616 -43 -975 -135 -330 -84 -452 -125 -740
-245 -607 -255 -1122 -670 -1531 -1234 -66 -91 -97 -147 -161 -289 -140 -314
-217 -670 -218 -1010 0 -448 86 -860 249 -1195 60 -123 206 -350 304 -472 147
-184 505 -478 714 -586 50 -26 95 -47 99 -47 10 0 -52 52 -112 95 -139 99
-292 223 -379 307 -55 53 -98 98 -95 101 3 3 46 -27 97 -67 332 -257 349 -268
513 -348 36 -17 115 -56 175 -85 122 -61 380 -167 495 -206 294 -98 539 -166
875 -242 92 -21 343 -62 515 -84 497 -64 1386 -44 1735 38 44 11 107 25 140
31 108 21 397 121 524 181 142 68 193 98 306 184 185 139 289 275 452 585 27
52 54 95 59 95 5 0 10 9 12 20 2 11 17 61 33 110 40 127 78 279 89 355 32 211
40 274 36 278 -8 7 -24 -70 -41 -193 -43 -316 -221 -738 -404 -955 -147 -175
-234 -248 -420 -354 -299 -171 -612 -256 -1166 -316 -160 -18 -637 -24 -805
-11 -246 19 -579 62 -748 97 -283 57 -721 185 -747 217 -5 7 -20 11 -32 9 -13
-2 -23 1 -23 7 0 6 -8 11 -18 11 -32 0 -152 41 -152 52 0 6 -6 8 -14 5 -8 -3
-24 5 -37 19 -22 24 -22 24 -1 24 11 0 24 -5 27 -10 3 -6 18 -10 33 -10 26 1
27 1 7 17 -19 15 -19 15 5 9 14 -4 31 -8 38 -8 6 -1 12 -5 12 -9 0 -3 15 -10
33 -13 96 -20 104 -2 15 33 -36 15 -72 32 -80 37 -11 9 -109 57 -288 142 -30
14 -77 40 -105 57 -27 17 -85 48 -128 69 -65 32 -80 37 -88 25 -7 -11 -9 -11
-9 -1 0 7 -4 10 -10 7 -5 -3 -29 7 -52 23 -24 15 -64 40 -90 55 -26 15 -53 33
-60 41 -8 7 -27 20 -43 29 -17 8 -40 25 -52 36 -12 12 -25 21 -28 21 -3 0 -51
35 -106 78 -55 42 -117 88 -137 102 -40 26 -242 220 -242 232 0 4 -25 33 -55
64 -30 32 -55 63 -55 69 0 7 -7 15 -15 19 -8 3 -15 10 -15 16 0 7 7 7 21 -1
21 -11 21 -11 3 14 -10 13 -24 23 -29 21 -6 -3 -11 5 -12 16 -2 25 -34 69 -50
70 -7 0 -10 7 -7 15 4 9 0 15 -10 15 -9 0 -16 5 -16 11 0 6 -15 32 -34 58 -50
69 -91 151 -140 280 -51 137 -62 177 -82 320 -2 19 -9 40 -14 47 -13 15 -46
256 -55 396 -9 140 3 388 19 382 19 -7 33 -69 27 -120 -13 -109 27 -671 49
-699 5 -5 11 -27 15 -48 4 -20 11 -40 16 -43 5 -3 9 -16 9 -29 0 -13 4 -26 9
-29 5 -3 12 -23 16 -43 4 -21 10 -42 14 -48 4 -5 23 -48 41 -95 98 -247 250
-417 680 -761 151 -120 521 -339 774 -456 141 -65 390 -165 626 -250 183 -66
226 -79 435 -133 648 -166 1564 -226 2075 -134 112 21 293 68 405 106 208 71
399 192 622 396 72 66 115 113 119 130 4 15 17 70 30 122 13 52 24 104 24 115
0 25 44 198 60 240 22 55 115 380 131 455 64 313 89 517 91 757 1 230 -7 324
-44 512 -27 138 -29 158 -17 193 10 33 10 52 0 111 -18 93 -39 241 -36 245 1
1 14 -7 28 -18 18 -14 26 -17 29 -8 5 15 30 -6 41 -35 4 -9 20 -20 37 -23 17
-4 33 -11 36 -15 3 -5 13 -9 22 -9 10 0 23 -9 30 -20 15 -25 35 -16 27 11 -4
11 -2 19 5 19 13 0 3 93 -11 98 -5 2 -9 19 -9 38 0 19 -4 34 -10 34 -5 0 -10
-9 -10 -21 0 -11 -4 -18 -9 -15 -11 7 -21 -17 -21 -52 l-1 -27 -17 22 c-9 12
-44 70 -77 128 -158 279 -245 407 -429 629 -50 60 -90 113 -88 118 1 5 -1 7
-6 4 -5 -3 -24 11 -42 30 -31 33 -160 148 -206 184 -11 8 -51 40 -89 71 -134
106 -396 276 -456 294 -13 4 -28 11 -34 15 -27 21 -263 112 -365 140 -63 17
-135 38 -160 45 -156 48 -448 96 -601 99 -100 2 -132 6 -146 18 -32 28 -61 30
-231 18 -210 -15 -596 -59 -654 -75 -18 -5 -28 -3 -28 4 0 6 -4 11 -10 11 -5
0 -10 -6 -10 -14 0 -9 -20 -19 -52 -26 -29 -7 -75 -18 -103 -25 -27 -8 -79
-21 -115 -31 -36 -9 -84 -23 -106 -31 -31 -11 -47 -12 -62 -4 -11 6 -27 8 -35
5 -8 -3 -17 2 -21 11 -4 11 -2 14 7 9 9 -5 9 -4 0 6 -18 19 -41 21 -47 4 -6
-16 -76 -20 -76 -4 0 13 63 44 127 63 28 9 62 21 75 28 13 7 39 16 58 20 19 4
71 17 115 29 99 26 168 40 410 86 105 19 199 39 210 44 11 5 63 17 115 27 125
23 504 23 695 0 306 -37 694 -153 975 -290 340 -167 580 -343 890 -656 140
-141 181 -189 268 -318 56 -83 102 -154 102 -156 0 -3 18 -35 40 -71 22 -36
40 -68 40 -70 0 -3 18 -43 40 -90 22 -47 45 -97 50 -112 6 -15 13 -25 15 -22
8 7 -42 176 -65 221 -60 116 -97 176 -132 217 -43 49 -42 49 -78 100 -14 19
-28 37 -31 40 -3 3 -12 16 -19 29 -7 14 -38 57 -69 96 -31 40 -63 82 -71 95
-77 120 -384 399 -585 531 -345 228 -625 351 -1015 449 -314 79 -505 95 -965
83z m393 -322 c18 -6 124 -15 235 -21 250 -13 298 -20 517 -77 251 -64 336
-100 615 -256 264 -147 472 -317 536 -436 9 -17 19 -28 23 -24 3 3 6 1 6 -6 0
-6 22 -38 48 -70 55 -66 91 -122 96 -148 4 -18 37 -94 82 -189 13 -28 24 -57
24 -65 0 -8 7 -33 15 -56 22 -63 57 -302 53 -364 -3 -48 -6 -54 -26 -57 -13
-2 -30 2 -39 9 -8 7 -29 12 -45 11 -27 -2 -29 0 -18 13 7 8 8 15 2 15 -21 0
-20 -29 1 -45 20 -15 20 -15 2 -9 -11 4 -27 7 -36 8 -10 0 -15 6 -11 15 4 9 1
12 -7 7 -6 -4 -23 0 -38 9 -18 12 -28 14 -36 6 -8 -8 11 -33 70 -92 124 -123
226 -290 310 -509 27 -72 43 -233 26 -264 -7 -13 -13 9 -22 85 -7 57 -21 119
-31 138 -51 101 -158 179 -300 221 -41 12 -95 28 -120 35 -56 17 -145 35 -168
35 -15 0 -15 -2 -2 -10 8 -5 29 -10 45 -10 17 0 39 -6 50 -14 11 -7 34 -16 50
-20 17 -4 44 -13 60 -21 17 -7 55 -25 85 -38 185 -84 209 -98 238 -134 62 -80
67 -96 64 -237 -2 -145 -16 -212 -66 -321 -34 -73 -120 -200 -180 -263 -81
-87 -192 -135 -356 -153 -112 -12 -118 -12 -240 15 -240 53 -366 100 -655 243
-115 57 -214 108 -220 113 -6 5 -33 16 -60 25 -28 9 -59 20 -70 25 -11 5 -36
13 -55 18 -97 27 -289 128 -291 155 -6 68 32 150 103 219 103 100 212 163 424
241 201 75 291 99 356 95 l53 -3 -41 -22 c-54 -29 -107 -92 -147 -173 -29 -60
-31 -73 -32 -170 0 -101 2 -109 34 -175 51 -103 179 -226 291 -283 47 -23 111
-49 144 -57 186 -47 447 -20 595 60 77 42 156 127 196 209 30 62 35 84 35 143
0 120 -54 196 -210 298 -141 91 -168 108 -265 156 -55 27 -120 67 -144 89 -24
22 -58 44 -75 49 -62 19 -228 22 -356 7 -125 -16 -197 -20 -189 -12 2 3 18 7
34 10 16 3 31 10 33 16 2 5 11 10 21 10 9 0 21 4 26 9 19 16 106 61 120 61 25
0 17 30 -11 40 -14 6 -28 19 -31 30 -3 12 -14 20 -27 20 -34 0 -98 26 -108 44
-5 9 -19 16 -30 16 -12 0 -48 5 -79 12 -47 9 -63 9 -83 -1 -24 -13 -46 -9 -46
9 0 5 12 11 28 13 15 3 6 4 -20 4 -33 -2 -48 2 -48 11 0 8 -8 10 -27 6 -41
-10 -17 10 37 29 25 9 54 18 65 20 11 2 27 7 35 10 41 17 117 28 235 33 131 7
203 22 115 25 -25 1 -48 1 -53 0 -4 -1 -49 -2 -100 -2 -161 -1 -293 -27 -495
-95 -59 -20 -75 -16 -102 28 -43 72 -85 117 -104 111 -16 -4 -18 -1 -14 22 5
22 3 26 -13 22 -14 -4 -21 1 -25 19 -3 13 -13 24 -21 24 -8 0 -11 5 -8 10 3 6
-3 10 -15 10 -16 0 -20 4 -15 19 3 12 0 21 -10 25 -8 3 -15 17 -15 31 0 14 -4
25 -9 25 -5 0 -8 54 -7 121 1 66 -2 123 -6 125 -5 3 -8 15 -8 27 0 17 2 19 9
8 7 -11 11 -9 20 8 11 19 9 21 -18 21 -16 0 -33 -4 -36 -10 -9 -15 -25 -12
-19 3 5 13 96 30 219 41 229 20 516 -106 724 -318 64 -64 190 -222 217 -271 6
-11 19 -21 28 -23 13 -3 16 3 14 25 -3 25 0 28 25 26 15 -1 27 3 27 9 0 13
-100 148 -111 148 -4 0 -16 15 -26 34 -40 73 -94 144 -160 206 -90 85 -177
162 -181 160 -2 -1 -22 14 -45 32 -67 54 -93 67 -159 84 -35 9 -75 23 -90 30
-16 8 -28 12 -28 9 0 -3 -9 -1 -19 5 -28 14 -194 55 -370 90 -143 28 -282 72
-289 92 -2 4 -12 8 -21 8 -22 0 -113 59 -106 70 3 4 -2 13 -10 20 -7 6 -12 17
-9 24 3 8 -24 27 -72 52 -42 21 -95 55 -117 75 -34 30 -39 39 -33 62 8 33 70
79 142 107 64 23 90 25 124 7 14 -7 69 -37 122 -65 94 -51 121 -54 98 -13 -16
30 -12 33 21 16 17 -9 33 -14 36 -11 3 3 -5 10 -18 15 -13 5 -20 10 -16 10 5
1 -9 16 -30 34 -63 52 -143 146 -143 167 0 11 9 24 21 31 14 7 19 17 16 30 -4
14 0 19 16 19 17 0 19 2 8 9 -11 7 -10 10 5 14 32 8 48 7 82 -2z m-1618 -56
c-7 -8 -21 -15 -31 -15 -30 0 -32 -19 -2 -26 15 -3 33 -7 39 -9 6 -2 17 1 25
6 10 6 10 9 2 9 -7 0 -13 5 -13 10 0 17 37 11 44 -6 4 -9 5 -17 4 -18 -25 -9
-42 -27 -40 -39 2 -13 -3 -14 -30 -6 -18 5 -34 9 -36 9 -2 0 0 5 3 10 3 6 -3
10 -15 10 -13 0 -18 4 -15 11 5 7 -7 9 -39 5 -25 -2 -46 0 -46 5 0 5 9 9 19 9
11 0 23 5 26 10 3 6 16 10 28 10 12 1 33 7 47 15 33 19 46 19 30 0z m110 -25
c13 -8 13 -10 -2 -10 -9 0 -20 5 -23 10 -8 13 5 13 25 0z m88 -15 c-5 -5 -131
-45 -142 -45 -17 0 28 29 45 30 9 0 29 6 44 14 15 8 34 12 42 9 7 -3 13 -7 11
-8z m-290 -56 c25 -1 -17 -18 -43 -18 -11 1 -14 3 -7 6 6 2 9 10 5 16 -4 7 0
8 11 4 10 -4 25 -7 34 -8z m-63 -69 c-3 -5 -11 -10 -16 -10 -6 0 -7 5 -4 10 3
6 11 10 16 10 6 0 7 -4 4 -10z m190 -665 c247 -84 358 -138 570 -283 174 -119
256 -190 346 -303 51 -63 134 -229 115 -229 -18 0 -76 48 -76 62 0 10 -16 40
-35 67 -19 26 -35 53 -35 58 0 15 -129 153 -143 153 -6 0 -18 7 -27 15 -18 16
-242 128 -280 140 -14 4 -57 23 -97 41 -40 19 -77 34 -83 34 -5 0 -10 4 -10 8
0 14 -71 35 -82 24 -6 -6 -16 -8 -23 -6 -7 3 -16 1 -20 -5 -4 -7 4 -11 19 -11
16 0 26 -6 26 -15 0 -8 -4 -15 -10 -15 -5 0 -10 4 -10 9 0 5 -9 7 -20 4 -11
-3 -20 -9 -20 -14 0 -5 -14 -9 -31 -9 -17 0 -28 -4 -24 -10 3 -5 17 -10 31
-10 13 0 24 -4 24 -9 0 -5 9 -11 20 -14 13 -3 21 1 25 14 4 10 10 19 15 19 10
0 100 -59 100 -66 0 -10 -19 -2 -40 16 -24 21 -65 24 -65 5 0 -5 14 -14 30
-20 17 -5 33 -14 36 -19 4 -5 16 -6 27 -4 15 4 19 2 15 -8 -5 -15 -3 -16 38
-18 15 -1 34 -7 42 -14 9 -7 24 -12 34 -10 13 2 17 -2 15 -15 -2 -14 2 -18 19
-15 12 2 24 -3 26 -9 3 -8 -3 -13 -14 -13 -10 0 -29 -7 -41 -16 -12 -8 -22
-11 -22 -5 0 6 -17 13 -37 16 -21 4 -54 12 -73 20 -19 7 -37 12 -40 12 -3 -1
-21 11 -41 26 -20 15 -40 27 -46 27 -5 0 -32 12 -59 26 -27 14 -62 33 -79 41
-16 9 -37 20 -45 24 -8 5 -22 12 -30 15 -8 3 -24 10 -35 17 -31 16 -146 46
-161 40 -7 -2 -22 0 -33 7 -19 10 -21 8 -22 -22 -1 -30 -2 -29 -10 11 -5 24
-15 54 -23 67 -14 20 -14 27 -1 65 19 52 60 107 89 119 l21 9 -22 0 c-13 1
-23 5 -23 10 0 6 -17 12 -37 15 -21 2 16 3 82 1 113 -3 129 -6 260 -50z m-255
-279 c0 -8 10 -17 23 -20 21 -7 21 -8 2 -15 -18 -7 -18 -8 -1 -18 9 -5 26 -23
37 -39 14 -21 19 -24 19 -11 0 31 19 18 39 -28 11 -25 27 -45 35 -45 8 0 48
-31 87 -69 40 -39 76 -68 81 -65 4 3 10 -7 14 -22 8 -30 -7 -44 -46 -44 -14 0
-54 -9 -90 -20 -87 -26 -102 -25 -64 5 25 19 30 30 26 52 -5 25 -54 83 -70 83
-5 0 -14 16 -21 36 -7 19 -20 38 -29 42 -25 9 -42 28 -42 46 0 9 -7 16 -15 16
-8 0 -15 7 -15 15 0 9 -10 26 -23 39 -18 18 -20 25 -10 34 7 7 16 12 21 12 6
0 12 9 15 21 6 22 27 18 27 -5z m400 -1 c0 -8 -9 -15 -20 -15 -25 0 -26 17 -2
23 9 3 18 5 20 6 1 0 2 -6 2 -14z m57 -191 c-3 -3 -12 -4 -19 -1 -8 3 -5 6 6
6 11 1 17 -2 13 -5z m262 -36 c20 -7 40 -19 44 -25 4 -7 15 -13 22 -13 21 0
19 -16 -2 -24 -15 -6 -15 -8 -3 -16 9 -6 17 -5 21 2 4 6 12 7 20 2 8 -5 24 -7
37 -5 15 1 22 -3 22 -13 0 -9 -8 -16 -20 -16 -11 0 -20 -5 -20 -11 0 -10 -56
-8 -115 5 -11 2 -53 5 -93 5 -40 1 -71 5 -68 10 3 4 -6 6 -19 3 -16 -3 -25 0
-25 8 0 10 23 12 101 6 70 -4 98 -3 94 5 -4 6 2 13 14 16 12 3 21 9 21 14 0 9
-19 12 -57 9 -18 -1 -23 4 -23 24 0 30 1 30 49 14z m-249 -16 c0 -9 -6 -12
-16 -8 -9 3 -20 6 -25 6 -6 0 -8 4 -4 9 8 15 45 9 45 -7z m30 -1 c0 -6 -4 -13
-10 -16 -5 -3 -10 1 -10 9 0 9 5 16 10 16 6 0 10 -4 10 -9z m-110 -65 c0 -3
-4 -8 -10 -11 -5 -3 -10 -1 -10 4 0 6 5 11 10 11 6 0 10 -2 10 -4z m43 -23
c-7 -2 -19 -2 -25 0 -7 3 -2 5 12 5 14 0 19 -2 13 -5z m447 -92 c199 -42 347
-132 518 -315 104 -112 156 -185 204 -286 70 -148 75 -189 18 -139 -19 16 -48
41 -64 55 -16 14 -50 37 -75 51 -25 14 -59 36 -75 50 -68 57 -277 143 -421
172 -151 30 -316 44 -417 34 -49 -5 -88 -5 -88 -1 0 4 10 8 23 9 21 1 21 1 -3
10 -18 6 -9 8 32 5 33 -3 58 0 60 6 2 5 58 12 125 15 l122 6 -31 38 c-16 20
-43 43 -59 49 -16 7 -29 19 -29 27 0 42 -56 62 -184 69 -103 6 -172 18 -193
36 -8 6 -9 17 -3 34 7 18 6 24 -4 24 -8 0 -16 -6 -19 -12 -2 -7 -8 -10 -12 -6
-10 10 17 36 33 30 22 -7 62 8 62 24 0 8 6 14 14 12 8 -2 15 2 15 7 0 19 48
24 201 20 104 -2 186 -10 250 -24z m1600 -151 c0 -5 -5 -10 -11 -10 -5 0 -7 5
-4 10 3 6 8 10 11 10 2 0 4 -4 4 -10z m-4318 -318 c3 -9 1 -26 -3 -37 -6 -15
-8 -11 -8 18 -1 40 4 48 11 19z m2880 -48 c46 -14 87 -30 93 -35 5 -5 15 -9
22 -9 20 0 143 -62 143 -72 0 -4 8 -8 18 -8 9 0 29 -11 44 -25 15 -14 30 -25
33 -25 29 0 220 -170 264 -234 56 -83 75 -190 50 -296 -18 -81 -64 -112 -245
-169 -383 -121 -886 -158 -1144 -84 -115 32 -293 141 -401 244 -14 13 -56 46
-92 72 -59 43 -127 120 -127 144 0 5 16 24 36 41 28 25 32 32 17 32 -17 1 -17
1 -1 14 10 7 15 15 12 19 -3 3 4 8 15 12 12 3 21 10 21 15 0 10 72 56 83 52 4
-1 7 5 5 14 -2 9 4 20 12 23 8 4 30 15 48 24 19 9 40 17 47 17 8 0 18 8 24 17
5 10 13 15 17 11 4 -4 0 -18 -9 -31 -8 -12 -20 -49 -27 -81 -23 -113 29 -290
112 -381 92 -100 173 -137 398 -176 114 -20 134 -21 235 -11 133 15 185 30
279 81 94 52 207 167 242 248 23 50 26 68 22 134 -5 91 -31 142 -117 232 -73
77 -178 128 -320 157 -57 11 -111 20 -120 19 -9 -1 -47 0 -86 2 l-70 3 70 6
c39 3 109 6 157 5 47 0 84 3 82 7 -4 6 22 14 58 17 9 0 54 -11 100 -25z m-584
-31 c-10 -2 -28 -2 -40 0 -13 2 -5 4 17 4 22 1 32 -1 23 -4z m2945 -58 c38
-25 34 -35 -15 -35 -41 0 -148 41 -148 56 0 14 137 -3 163 -21z m-2320 -176
c31 -42 37 -101 16 -148 -20 -45 -44 -61 -92 -61 -65 0 -101 72 -77 158 16 62
42 84 92 80 31 -2 46 -10 61 -29z m-309 -1 c36 -32 42 -75 16 -116 -23 -38
-40 -47 -73 -38 -50 12 -63 105 -22 150 29 32 46 33 79 4z m2646 2 c44 -44 30
-112 -25 -126 -53 -13 -103 57 -74 105 26 41 70 50 99 21z m246 4 c47 -22 68
-66 68 -136 -1 -87 -38 -130 -112 -130 -27 0 -43 8 -71 36 -34 35 -36 39 -35
101 1 46 8 73 23 99 32 50 66 59 127 30z m-3323 -23 c48 -57 43 -149 -10 -191
-14 -11 -36 -20 -48 -20 -52 0 -104 95 -90 166 13 72 102 99 148 45z m2664
-16 c13 -9 28 -33 34 -54 10 -33 8 -44 -12 -89 -13 -28 -27 -48 -31 -46 -4 3
-5 -2 -2 -10 4 -10 1 -16 -7 -16 -10 0 -10 -3 -3 -8 30 -20 46 -92 20 -92 -34
0 -63 39 -76 102 -6 34 -20 75 -31 89 -25 36 -25 93 1 119 24 24 77 26 107 5z
m881 -139 c-4 -45 -17 -87 -50 -156 -40 -86 -51 -101 -114 -151 -38 -30 -88
-61 -112 -69 l-42 -13 22 -25 23 -25 -45 25 c-37 21 -64 27 -148 33 l-103 7
-40 -46 c-42 -48 -67 -56 -93 -31 -8 8 -19 15 -25 15 -18 0 -24 50 -10 77 8
15 18 35 24 45 5 10 13 18 18 18 4 0 5 5 2 10 -8 12 44 -9 65 -27 35 -28 107
-45 200 -47 87 -1 101 2 160 30 88 41 155 111 204 209 38 77 42 92 48 162 1
17 6 29 11 26 5 -3 7 -33 5 -67z m-3616 -122 c25 -43 22 -54 -13 -54 -21 0
-43 -10 -66 -30 -35 -31 -53 -38 -53 -20 0 6 4 10 10 10 5 0 7 7 4 15 -4 8 -2
21 4 28 5 6 12 24 16 40 3 15 14 36 23 47 15 17 20 18 37 6 11 -7 28 -26 38
-42z m503 -145 c93 -12 137 -25 169 -50 15 -12 25 -23 24 -25 -2 -2 -33 5 -69
16 -35 11 -102 22 -149 25 l-85 5 38 -18 39 -17 -56 1 c-30 1 -53 -3 -50 -7 3
-5 -1 -9 -8 -10 -56 -3 -106 -9 -124 -13 -34 -9 -38 20 -6 42 15 11 36 22 47
26 11 3 0 3 -25 1 -25 -2 -82 -20 -127 -40 -96 -42 -133 -46 -79 -10 132 89
228 105 461 74z m52 -55 c-3 -3 -12 -4 -19 -1 -8 3 -5 6 6 6 11 1 17 -2 13 -5z
m-272 -84 c3 -5 -1 -10 -9 -10 -9 0 -16 5 -16 10 0 6 4 10 9 10 6 0 13 -4 16
-10z m-2110 -31 c58 -16 109 -73 125 -137 26 -112 -21 -182 -124 -182 -41 0
-45 3 -58 32 -7 18 -27 60 -44 93 -37 73 -47 116 -33 153 19 52 55 63 134 41z
m3012 -65 c-3 -3 -12 -4 -19 -1 -8 3 -5 6 6 6 11 1 17 -2 13 -5z m-130 -44
c12 0 13 -3 4 -13 -6 -8 -7 -17 -3 -22 4 -4 -3 -6 -15 -3 -12 3 -30 1 -40 -6
-50 -32 -217 -73 -289 -71 -34 1 -62 -3 -66 -9 -9 -13 -191 -9 -196 5 -2 5
-10 9 -18 9 -9 0 -12 5 -9 10 3 6 -2 10 -11 10 -13 0 -15 3 -7 11 6 6 60 15
119 20 60 4 159 15 219 24 111 16 149 21 218 29 21 2 41 7 45 10 3 4 12 4 20
1 7 -3 21 -5 29 -5z m289 -59 c-3 -5 1 -12 10 -15 8 -3 12 -2 9 4 -18 29 68 1
275 -90 85 -37 200 -87 255 -110 55 -23 119 -50 142 -61 24 -10 46 -19 51 -19
5 0 26 -9 49 -20 36 -17 81 -35 153 -60 14 -5 50 -18 80 -30 30 -12 76 -28
101 -36 92 -28 453 -212 484 -246 17 -18 45 -67 63 -108 50 -115 89 -161 184
-219 120 -72 157 -101 190 -145 30 -42 31 -80 2 -137 l-13 -27 -73 37 c-134
67 -264 88 -608 101 -135 5 -328 12 -430 16 l-185 8 75 14 c42 8 164 16 275
18 369 8 463 6 538 -11 88 -20 288 -83 303 -96 27 -22 33 44 9 90 -16 33 -122
132 -178 168 -21 13 -43 35 -49 48 -6 13 -14 22 -19 20 -6 -5 -34 29 -79 95
-8 13 -34 46 -57 75 -23 29 -40 55 -37 58 3 3 -13 18 -35 33 -23 14 -41 30
-41 33 0 11 -105 61 -126 61 -11 0 -25 -5 -32 -12 -6 -6 -17 -13 -24 -15 -7
-1 -26 -6 -43 -9 -16 -4 -33 -11 -36 -16 -3 -5 -40 -12 -82 -15 -65 -5 -77 -3
-83 11 -3 9 -14 16 -23 16 -10 0 -26 8 -37 19 -26 24 -61 35 -69 21 -3 -5 6
-15 20 -22 17 -8 22 -14 13 -19 -14 -9 -38 3 -71 34 -50 48 -76 66 -227 156
-8 5 -30 15 -47 21 -18 7 -33 16 -33 21 0 5 -5 9 -11 9 -6 0 -30 14 -54 30
-51 35 -75 38 -75 10 0 -11 -4 -20 -10 -20 -5 0 -10 8 -10 18 0 11 -3 13 -8 6
-5 -8 -15 -8 -32 -2 -24 10 -23 11 23 25 52 17 59 28 25 37 -36 9 -41 7 -35
-13 3 -14 -1 -19 -17 -19 -11 0 -31 -3 -43 -7 -18 -6 -23 -3 -23 9 0 9 7 16
15 16 8 0 15 6 15 14 0 7 10 16 22 19 34 9 17 17 -43 21 -59 3 -82 -1 -73 -15
3 -5 -2 -6 -10 -3 -9 3 -16 12 -16 20 0 8 -9 14 -20 14 -13 0 -20 7 -20 20 0
14 -7 20 -24 20 -14 0 -30 10 -40 25 -23 35 -68 34 -104 -2 -15 -15 -29 -28
-32 -28 -12 0 -49 -34 -80 -72 -18 -24 -39 -43 -45 -43 -7 0 -32 -18 -56 -40
-24 -22 -54 -40 -65 -40 -12 0 -25 -7 -28 -16 -3 -8 -10 -12 -16 -9 -5 3 -10
1 -10 -4 0 -6 -6 -11 -14 -11 -7 0 -39 -14 -71 -31 -31 -17 -59 -29 -60 -27
-2 2 51 44 117 93 138 102 232 193 291 280 22 33 48 65 56 72 19 14 45 17 37
4z m2118 -192 c-3 -6 -26 -20 -49 -30 -34 -15 -49 -17 -71 -9 -33 13 -30 17
21 23 22 3 51 10 65 15 33 14 43 14 34 1z m-1864 -34 c0 -8 -7 -15 -15 -15 -8
0 -15 7 -15 15 0 8 7 15 15 15 8 0 15 -7 15 -15z m-600 1 c0 -11 -19 -15 -25
-6 -3 5 1 10 9 10 9 0 16 -2 16 -4z m2283 -3 c-13 -2 -33 -2 -45 0 -13 2 -3 4
22 4 25 0 35 -2 23 -4z m-2333 -13 c0 -5 -5 -10 -11 -10 -5 0 -7 5 -4 10 3 6
8 10 11 10 2 0 4 -4 4 -10z m2360 -14 c0 -3 -4 -8 -10 -11 -5 -3 -10 -1 -10 4
0 6 5 11 10 11 6 0 10 -2 10 -4z m-2340 -10 c0 -2 -30 -28 -67 -58 -73 -58
-153 -108 -175 -108 -16 1 32 39 50 40 7 0 20 9 29 20 10 11 22 20 28 20 7 0
22 11 35 25 13 14 29 25 36 25 7 0 18 9 24 20 9 17 40 29 40 16z m2228 -139
c-96 -78 -190 -124 -230 -111 -10 3 -18 10 -18 15 0 6 4 7 10 4 5 -3 25 6 45
20 19 15 39 24 45 20 6 -4 33 10 61 30 27 19 54 33 58 30 5 -2 11 4 14 15 4
15 14 20 36 20 l32 0 -53 -43z m-291 -133 c-3 -3 -12 -4 -19 -1 -8 3 -5 6 6 6
11 1 17 -2 13 -5z m-197 -704 c182 -4 349 -13 379 -20 47 -11 112 -37 173 -71
10 -5 25 -9 34 -9 13 0 14 -3 5 -14 -10 -12 -8 -16 10 -21 12 -4 18 -10 13
-14 -5 -3 -17 -19 -26 -36 -12 -22 -29 -33 -60 -42 -24 -6 -45 -12 -48 -13
-13 -5 -168 1 -381 16 -129 8 -319 15 -423 14 -131 -1 -186 2 -181 9 4 7 -9
11 -37 10 -36 -1 -39 -2 -18 -9 18 -6 6 -8 -45 -10 -38 -1 -79 -4 -90 -6 -11
-3 -93 -7 -182 -10 -149 -4 -162 -3 -156 12 5 13 3 15 -13 6 -10 -5 -45 -13
-77 -16 -31 -4 -55 -11 -53 -15 3 -4 -35 -7 -84 -6 -49 1 -87 -2 -84 -7 3 -4
-4 -8 -15 -8 -12 0 -21 3 -21 8 0 4 -22 7 -49 7 -29 0 -44 -3 -38 -8 11 -8
-191 -2 -238 6 -11 2 -14 2 -7 0 30 -11 6 -21 -64 -28 -55 -5 -79 -4 -84 5 -5
9 -28 10 -86 3 -44 -4 -90 -7 -104 -6 -13 1 -27 -1 -30 -6 -3 -4 -33 -5 -67
-1 -71 7 -116 34 -121 72 -7 55 53 74 328 102 288 29 476 46 631 57 199 13
217 14 324 28 217 28 497 34 985 21z m-1072 -247 c-10 -2 -26 -2 -35 0 -10 3
-2 5 17 5 19 0 27 -2 18 -5z m1211 -139 c5 -5 -57 -7 -149 -6 -90 1 -102 4
-50 12 42 7 190 2 199 -6z m-263 -9 c-2 -5 -14 -9 -28 -7 -16 1 -28 -4 -32
-13 -6 -17 16 -20 43 -6 10 6 42 6 75 2 53 -7 82 0 54 13 -7 3 -4 4 7 3 11 -2
19 -9 18 -15 -2 -7 8 -12 23 -12 14 0 22 4 19 10 -3 6 1 7 9 4 33 -12 2 -25
-54 -22 -35 1 -63 -2 -73 -10 -9 -8 -64 -15 -146 -19 -72 -3 -131 -10 -131
-15 0 -4 -20 -8 -45 -8 -25 0 -45 4 -45 9 0 5 9 7 20 4 11 -3 20 0 20 6 0 6
-8 11 -17 11 -11 1 -4 7 15 15 17 8 32 19 32 24 0 11 -80 8 -100 -4 -13 -8
-27 2 -16 12 9 9 230 30 303 29 31 -1 51 -5 49 -11z m244 -25 c0 -5 -7 -10
-16 -10 -8 0 -12 5 -9 10 3 6 10 10 16 10 5 0 9 -4 9 -10z m-3033 -96 c-3 -3
-12 -4 -19 -1 -8 3 -5 6 6 6 11 1 17 -2 13 -5z"/>
<path d="M6475 7840 c-3 -6 1 -13 10 -16 21 -9 26 -2 10 13 -9 8 -16 9 -20 3z"/>
<path d="M5138 7453 c6 -2 18 -2 25 0 6 3 1 5 -13 5 -14 0 -19 -2 -12 -5z"/>
<path d="M4918 7403 c7 -3 16 -2 19 1 4 3 -2 6 -13 5 -11 0 -14 -3 -6 -6z"/>
<path d="M4960 7370 c0 -5 5 -10 10 -10 6 0 10 5 10 10 0 6 -4 10 -10 10 -5 0
-10 -4 -10 -10z"/>
<path d="M4932 7341 c-11 -7 -10 -10 3 -15 23 -9 25 -8 25 9 0 17 -9 19 -28 6z"/>
<path d="M5648 6633 c6 -2 18 -2 25 0 6 3 1 5 -13 5 -14 0 -19 -2 -12 -5z"/>
<path d="M5803 6613 c9 -2 23 -2 30 0 6 3 -1 5 -18 5 -16 0 -22 -2 -12 -5z"/>
<path d="M5947 6575 c-4 -10 -2 -15 6 -13 18 3 58 -22 52 -33 -4 -5 -2 -9 3
-9 8 0 23 -11 69 -50 7 -5 19 -10 27 -10 8 0 18 -4 21 -10 3 -5 14 -10 23 -10
9 -1 31 -12 47 -26 l30 -26 -28 6 c-22 5 -27 4 -21 -6 14 -23 49 -58 59 -58
14 0 85 -67 85 -79 0 -6 5 -11 12 -11 6 0 9 -3 6 -6 -9 -9 33 -48 84 -77 32
-18 49 -24 54 -16 3 6 2 14 -3 18 -6 3 -14 17 -18 31 -9 32 -70 134 -109 184
-87 111 -158 161 -269 186 -45 10 -92 22 -103 25 -15 5 -23 2 -27 -10z"/>
<path d="M6474 5201 c-1 -20 0 -27 3 -15 3 16 10 20 29 16 32 -6 31 4 -3 22
l-28 14 -1 -37z"/>
<path d="M6625 5160 c-3 -5 1 -10 9 -10 9 0 16 5 16 10 0 6 -4 10 -9 10 -6 0
-13 -4 -16 -10z"/>
<path d="M6820 5060 c0 -5 5 -10 11 -10 5 0 7 5 4 10 -3 6 -8 10 -11 10 -2 0
-4 -4 -4 -10z"/>
<path d="M7217 4896 c-4 -10 -1 -13 9 -9 15 6 19 23 5 23 -5 0 -11 -7 -14 -14z"/>
<path d="M7465 4843 c11 -3 23 -10 27 -16 4 -6 10 -8 15 -4 10 11 -17 27 -42
26 l-20 -1 20 -5z"/>
<path d="M7525 4810 c-13 -5 -14 -9 -5 -9 8 0 24 4 35 9 13 5 14 9 5 9 -8 0
-24 -4 -35 -9z"/>
<path d="M7692 4765 c9 -10 21 -16 28 -13 7 2 -1 10 -16 17 -27 12 -28 11 -12
-4z"/>
<path d="M7684 4742 c3 -5 17 -12 32 -15 30 -5 20 8 -15 18 -15 4 -21 3 -17
-3z"/>
<path d="M7378 3823 c7 -3 16 -2 19 1 4 3 -2 6 -13 5 -11 0 -14 -3 -6 -6z"/>
<path d="M7440 3820 c0 -5 4 -10 9 -10 6 0 13 5 16 10 3 6 -1 10 -9 10 -9 0
-16 -4 -16 -10z"/>
<path d="M6978 3803 c12 -2 32 -2 45 0 12 2 2 4 -23 4 -25 0 -35 -2 -22 -4z"/>
<path d="M7623 3613 c-24 -3 -30 -8 -26 -20 4 -9 2 -14 -3 -11 -5 4 -18 -1
-29 -9 -19 -15 -19 -15 5 -8 14 4 41 10 60 13 33 5 34 6 10 13 l-25 7 27 1
c15 1 30 6 33 11 3 6 0 9 -7 8 -7 0 -27 -3 -45 -5z"/>
<path d="M7524 3601 c5 -8 56 -3 56 5 0 2 -14 4 -31 4 -16 0 -28 -4 -25 -9z"/>
<path d="M7735 3570 c3 -5 10 -10 16 -10 5 0 9 5 9 10 0 6 -7 10 -16 10 -8 0
-12 -4 -9 -10z"/>
<path d="M7500 3555 c0 -8 5 -15 10 -15 6 0 10 5 10 11 0 5 5 7 10 4 6 -3 10
-1 10 4 0 6 -9 11 -20 11 -11 0 -20 -7 -20 -15z"/>
<path d="M7608 3553 c6 -2 18 -2 25 0 6 3 1 5 -13 5 -14 0 -19 -2 -12 -5z"/>
<path d="M4320 8388 c-134 -67 -418 -241 -440 -269 -3 -3 -35 -27 -72 -52 -86
-58 -83 -56 -192 -157 -126 -117 -179 -173 -243 -258 -57 -76 -65 -117 -9 -48
67 83 390 394 491 472 150 116 452 299 593 360 23 10 42 21 42 26 0 4 -1 8 -3
8 -1 0 -76 -37 -167 -82z"/>
<path d="M5435 8370 c-3 -5 3 -10 14 -10 11 0 23 5 26 10 3 6 -3 10 -14 10
-11 0 -23 -4 -26 -10z"/>
<path d="M5370 8360 c-13 -8 -13 -10 2 -10 9 0 20 5 23 10 8 13 -5 13 -25 0z"/>
<path d="M8950 7615 c0 -12 42 -66 47 -61 3 3 -6 19 -21 36 -14 17 -26 29 -26
25z"/>
<path d="M9432 6910 c0 -14 2 -19 5 -12 2 6 2 18 0 25 -3 6 -5 1 -5 -13z"/>
<path d="M9400 6885 c-7 -8 -9 -22 -5 -32 6 -15 9 -13 16 11 10 35 7 42 -11
21z"/>
<path d="M3498 4553 c7 -3 16 -2 19 1 4 3 -2 6 -13 5 -11 0 -14 -3 -6 -6z"/>
<path d="M9344 4404 c-27 -43 -55 -90 -61 -102 -7 -13 -27 -41 -44 -63 -43
-54 -18 -49 38 9 46 47 129 199 121 223 -2 7 -26 -24 -54 -67z"/>
<path d="M3940 4156 c0 -7 133 -105 178 -131 17 -11 32 -23 32 -27 0 -4 8 -8
18 -8 10 0 29 -11 42 -25 25 -26 54 -34 48 -12 -2 6 -17 19 -34 27 -16 8 -83
51 -149 95 -129 86 -135 90 -135 81z"/>
<path d="M4271 3936 c-10 -11 -8 -16 9 -21 12 -4 24 -4 27 -1 4 3 1 6 -6 6 -7
0 -10 4 -6 9 9 16 -12 22 -24 7z"/>
<path d="M4357 3899 c7 -7 15 -10 18 -7 3 3 -2 9 -12 12 -14 6 -15 5 -6 -5z"/>
<path d="M4320 3875 c14 -8 32 -14 40 -15 8 0 2 7 -14 15 -36 19 -59 19 -26 0z"/>
<path d="M8706 3504 c-39 -19 -75 -38 -80 -43 -15 -11 -223 -101 -321 -139
-111 -42 -305 -99 -515 -153 -47 -11 -96 -27 -110 -35 l-25 -13 28 -1 c15 0
53 7 85 15 31 8 134 33 227 55 272 66 463 133 604 213 19 10 58 30 85 45 89
45 142 92 104 92 -7 0 -44 -16 -82 -36z"/>
<path d="M5185 3425 c36 -14 155 -41 155 -36 0 11 -103 41 -136 40 -16 0 -24
-2 -19 -4z"/>
<path d="M5440 3359 c0 -5 11 -9 25 -9 14 0 25 2 25 4 0 2 -11 6 -25 8 -14 3
-25 1 -25 -3z"/>
<path d="M5545 3330 c3 -5 10 -10 16 -10 5 0 9 5 9 10 0 6 -7 10 -16 10 -8 0
-12 -4 -9 -10z"/>
<path d="M2260 1580 c0 -5 5 -10 11 -10 5 0 7 5 4 10 -3 6 -8 10 -11 10 -2 0
-4 -4 -4 -10z"/>
<path d="M6853 1064 c-7 -7 -13 -24 -13 -38 0 -13 -7 -26 -15 -30 -8 -3 -15
-13 -15 -23 0 -14 2 -15 9 -4 5 8 16 11 27 7 15 -6 12 -10 -17 -24 -18 -9 -39
-28 -46 -42 -18 -36 -17 -115 2 -130 9 -8 15 -26 13 -47 -2 -35 16 -57 40 -48
6 2 12 -1 12 -8 0 -12 44 -37 65 -37 20 0 95 40 95 51 0 5 8 9 18 7 14 -2 16
3 14 29 -2 21 3 38 15 50 12 12 19 35 20 67 1 28 7 53 15 57 9 6 6 9 -9 9 -20
0 -23 -5 -23 -40 0 -43 -19 -61 -43 -41 -10 7 -17 7 -24 0 -31 -31 -74 32 -51
74 5 10 8 20 6 21 -2 1 -15 10 -30 19 -31 19 -37 44 -13 53 22 9 18 24 -5 24
-11 0 -20 -4 -20 -10 0 -5 -4 -10 -10 -10 -13 0 -13 43 1 57 6 6 7 13 2 16 -4
3 -14 -1 -20 -9z m125 -334 c4 0 15 12 24 28 l17 27 1 -27 c0 -31 -5 -36 -54
-43 -41 -7 -48 10 -18 45 l17 21 3 -26 c2 -14 6 -25 10 -25z"/>
<path d="M6896 1062 c-2 -4 -1 -14 5 -22 7 -12 9 -10 9 8 0 23 -5 28 -14 14z"/>
<path d="M6940 1061 c0 -5 7 -12 15 -15 9 -3 21 -19 26 -36 6 -16 15 -30 20
-30 16 0 10 20 -17 56 -25 33 -44 44 -44 25z"/>
<path d="M6940 991 c0 -12 5 -21 10 -21 6 0 10 6 10 14 0 8 -4 18 -10 21 -5 3
-10 -3 -10 -14z"/>
<path d="M6752 967 c6 -20 15 -34 20 -31 13 8 9 23 -11 46 -20 21 -20 21 -9
-15z"/>
<path d="M7238 994 c-5 -4 -8 -19 -7 -33 1 -32 14 -68 20 -55 7 15 -5 97 -13
88z"/>
<path d="M7034 975 c-4 -8 -10 -13 -14 -10 -5 3 -3 -6 3 -20 17 -35 27 -31 27
10 0 37 -7 45 -16 20z"/>
<path d="M1920 958 c0 -12 91 -116 231 -263 112 -118 232 -266 311 -386 31
-47 105 -136 163 -197 l107 -112 50 0 49 0 -35 44 c-20 23 -36 47 -36 51 0 9
-55 75 -175 211 -44 50 -126 151 -182 225 -131 172 -234 278 -352 359 -102 71
-131 86 -131 68z"/>
<path d="M2315 960 c-3 -6 1 -7 9 -4 18 7 21 14 7 14 -6 0 -13 -4 -16 -10z"/>
<path d="M2330 945 c0 -13 111 -218 142 -263 32 -46 110 -139 192 -227 54 -58
119 -162 207 -332 l63 -123 54 0 c62 0 62 -7 4 130 -59 139 -152 278 -298 446
-43 50 -109 127 -146 170 -75 89 -94 110 -131 141 -13 11 -29 28 -33 36 -9 15
-54 33 -54 22z"/>
<path d="M6985 900 c3 -5 8 -10 11 -10 2 0 4 5 4 10 0 6 -5 10 -11 10 -5 0 -7
-4 -4 -10z"/>
<path d="M7230 772 c0 -24 4 -41 9 -38 16 10 19 45 5 63 -12 16 -13 13 -14
-25z"/>
<path d="M6705 664 c19 -26 35 -51 35 -55 0 -5 7 -9 15 -9 8 0 15 4 15 9 0 5
3 17 6 26 5 13 2 16 -12 13 -18 -4 -64 36 -64 55 0 4 -7 7 -15 7 -12 0 -6 -13
20 -46z"/>
<path d="M6835 640 c-3 -5 -3 -10 1 -10 4 0 -1 -6 -12 -14 -22 -17 -19 -22 19
-32 l29 -7 -16 30 c-8 17 -12 33 -9 37 4 3 4 6 0 6 -3 0 -9 -4 -12 -10z"/>
<path d="M7000 635 c0 -8 5 -15 10 -15 6 0 10 7 10 15 0 8 -4 15 -10 15 -5 0
-10 -7 -10 -15z"/>
<path d="M7217 613 c-6 -32 -3 -38 12 -28 13 8 15 55 2 55 -5 0 -11 -12 -14
-27z"/>
<path d="M8416 170 c-31 -55 -56 -105 -56 -111 0 -6 -8 -9 -17 -7 -14 2 -19
16 -23 58 l-5 55 -7 -60 c-10 -83 -3 -105 33 -105 22 0 29 5 29 19 0 10 25 69
55 131 31 62 54 114 52 117 -3 2 -30 -41 -61 -97z"/>
</g>
</svg>
